<?xml version="1.0" encoding="UTF-8" standalone="no"?>
<!DOCTYPE svg PUBLIC "-//W3C//DTD SVG 1.1//EN" "http://www.w3.org/Graphics/SVG/1.1/DTD/svg11.dtd">
<svg version="1.1" xmlns="http://www.w3.org/2000/svg" xmlns:xlink="http://www.w3.org/1999/xlink" preserveAspectRatio="xMidYMid meet" viewBox="0 0 640 640" width="640" height="640"><defs><path d="M422.84 0C422.84 384.03 422.84 597.25 422.84 640C422.84 640 422.84 640 422.84 640C298.54 640 229.36 640 215.62 640C215.62 640 215.62 640 215.62 640C215.62 255.96 215.62 42.74 215.62 0C215.62 0 215.62 0 215.62 0C339.92 0 409.1 0 422.84 0C422.84 0 422.84 0 422.84 0Z" id="acCqljGVn"></path><path d="M422.84 0C422.84 384.03 422.84 597.25 422.84 640C422.84 640 422.84 640 422.84 640C298.54 640 229.36 640 215.62 640C215.62 640 215.62 640 215.62 640C215.62 255.96 215.62 42.74 215.62 0C215.62 0 215.62 0 215.62 0C339.92 0 409.1 0 422.84 0C422.84 0 422.84 0 422.84 0Z" id="c3v1e8rvJt"></path><path d="M320 413.21C368.93 416.82 411.51 379.91 414.94 330.98C415.28 327.55 415.28 323.94 415.11 320.34C414.08 267.81 370.65 226.09 318.11 227.12C267.12 227.98 225.92 269.18 224.89 320.34C222.49 369.27 260.26 410.98 309.36 413.39C312.79 413.56 316.4 413.56 320 413.21ZM68.67 320.34C68.67 179.22 185.75 99.57 320 99.57C454.25 99.57 571.34 179.39 571.34 320.34C571.34 460.77 454.08 540.43 320 540.43C186.61 540.43 68.67 461.46 68.67 320.34Z" id="b1cNx042RW"></path><path d="M320 413.21C368.93 416.82 411.51 379.91 414.94 330.98C415.28 327.55 415.28 323.94 415.11 320.34C414.08 267.81 370.65 226.09 318.11 227.12C267.12 227.98 225.92 269.18 224.89 320.34C222.49 369.27 260.26 410.98 309.36 413.39C312.79 413.56 316.4 413.56 320 413.21ZM68.67 320.34C68.67 179.22 185.75 99.57 320 99.57C454.25 99.57 571.34 179.39 571.34 320.34C571.34 460.77 454.08 540.43 320 540.43C186.61 540.43 68.67 461.46 68.67 320.34Z" id="advvd4qSM"></path></defs><g><g><g><use xlink:href="#acCqljGVn" opacity="1" fill="#ff290b" fill-opacity="1"></use><g><use xlink:href="#acCqljGVn" opacity="1" fill-opacity="0" stroke="#000000" stroke-width="1" stroke-opacity="0"></use></g></g><g><use xlink:href="#c3v1e8rvJt" opacity="1" fill="#000000" fill-opacity="0"></use><g><use xlink:href="#c3v1e8rvJt" opacity="1" fill-opacity="0" stroke="#000000" stroke-width="1" stroke-opacity="0"></use></g></g><g><use xlink:href="#b1cNx042RW" opacity="1" fill="#000000" fill-opacity="1"></use><g><use xlink:href="#b1cNx042RW" opacity="1" fill-opacity="0" stroke="#000000" stroke-width="1" stroke-opacity="0"></use></g></g><g><use xlink:href="#advvd4qSM" opacity="1" fill="#000000" fill-opacity="0"></use><g><use xlink:href="#advvd4qSM" opacity="1" fill-opacity="0" stroke="#000000" stroke-width="1" stroke-opacity="0"></use></g></g></g></g></svg>