<?xml version="1.0" encoding="UTF-8" standalone="no"?>
<!DOCTYPE svg PUBLIC "-//W3C//DTD SVG 1.1//EN" "http://www.w3.org/Graphics/SVG/1.1/DTD/svg11.dtd">
<svg version="1.1" xmlns="http://www.w3.org/2000/svg" xmlns:xlink="http://www.w3.org/1999/xlink" preserveAspectRatio="xMidYMid meet" viewBox="0 0 640 640" width="640" height="640"><defs><path d="M234.25 548.19L243.42 550.88L252.72 553.25L262.14 555.33L271.68 557.08L281.33 558.53L291.07 559.64L300.9 560.45L310.8 560.93L320.77 561.1L330.79 560.93L340.74 560.44L350.61 559.63L360.39 558.5L370.06 557.05L379.63 555.29L389.07 553.2L398.39 550.8L407.57 548.1L416.6 545.08L423.61 542.46L423.61 640L216.4 640L216.4 541.89L225.23 545.19L234.25 548.19ZM416.67 94.95L407.64 91.93L398.46 89.22L389.14 86.81L379.68 84.72L370.11 82.96L360.43 81.51L350.64 80.37L340.76 79.56L330.8 79.07L320.77 78.9L310.74 79.07L300.78 79.56L290.9 80.37L281.12 81.5L271.43 82.95L261.86 84.72L252.41 86.8L243.09 89.2L233.9 91.91L224.87 94.93L216.4 98.1L216.4 0L423.61 0L423.61 97.55L416.67 94.95Z" id="g1jhKXBvd5"></path><path d="M415.11 320.34C414.08 267.81 370.65 226.09 318.11 227.12C267.12 227.98 225.92 269.18 224.89 320.34C222.49 369.27 260.26 410.98 309.36 413.39C312.79 413.56 316.4 413.56 320 413.21C368.93 416.82 411.51 379.91 414.94 330.98C415.28 327.55 415.28 323.94 415.11 320.34ZM571.34 320.34C571.34 460.77 454.08 540.43 320 540.43C186.61 540.43 68.67 461.46 68.67 320.34C68.67 179.22 185.75 99.57 320 99.57C454.25 99.57 571.34 179.39 571.34 320.34Z" id="fcW2dJ2m8"></path></defs><g><g><g><use xlink:href="#g1jhKXBvd5" opacity="1" fill="#ffffff" fill-opacity="1"></use><g><use xlink:href="#g1jhKXBvd5" opacity="1" fill-opacity="0" stroke="#000000" stroke-width="1" stroke-opacity="0"></use></g></g><g><use xlink:href="#fcW2dJ2m8" opacity="1" fill="#ffffff" fill-opacity="1"></use><g><use xlink:href="#fcW2dJ2m8" opacity="1" fill-opacity="0" stroke="#000000" stroke-width="1" stroke-opacity="0"></use></g></g></g></g></svg>