<svg xmlns="http://www.w3.org/2000/svg" width="188" height="69" viewBox="0 0 188 69"><title>logo</title><rect x="59.7" width="12.07" height="66.67" fill="#ff290b"/><path d="M8.34,18.66a5.178,5.178,0,0,0,5.54,5.41,5.173,5.173,0,0,0,5.54-5.41,5.253,5.253,0,0,0-5.54-5.44A5.259,5.259,0,0,0,8.34,18.66ZM8.62,9.32h0.1A8.662,8.662,0,0,1,16.06,5.8c7.25,0,12.27,6.01,12.27,12.91,0,6.95-4.97,12.77-12.17,12.77a9.976,9.976,0,0,1-7.54-3.1V42.71H0V6.59H8.62V9.32Z" fill-rule="evenodd"/><path d="M39.7,10.54h0.1c1.66-2.96,4.5-4.27,7.86-4.27h1.66v8.21a7.1,7.1,0,0,0-3.65-.79c-4.78,0-5.97,3.15-5.97,7.27v9.73H31.08V6.59H39.7v3.95Z"/><path d="M60.24,18.66a5.173,5.173,0,0,0,5.54,5.41,5.173,5.173,0,0,0,5.54-5.41A5.541,5.541,0,0,0,60.24,18.66Zm20.18,0c0,8.18-6.83,12.82-14.64,12.82-7.77,0-14.64-4.6-14.64-12.82S57.96,5.8,65.78,5.8,80.42,10.45,80.42,18.66Z" fill-rule="evenodd"/><path d="M92.1,9.7h0.1c1.99-2.92,4.41-3.9,7.77-3.9,6.53,0,9.14,4.09,9.14,10V30.69h-8.62V18.94c0-2.3.38-6.33-3.88-6.33-3.51,0-4.51,2.58-4.51,5.59V30.69H83.48V6.59H92.1V9.7Z"/><path d="M144.29,18.66a5.547,5.547,0,0,0,11.09,0A5.546,5.546,0,0,0,144.29,18.66Zm20.18,0c0,8.18-6.82,12.82-14.64,12.82-7.77,0-14.64-4.6-14.64-12.82S142.02,5.8,149.83,5.8,164.47,10.45,164.47,18.66Z" fill-rule="evenodd"/><path d="M110.81,7.32h5.02V0.01L124.22,0V7.32h9.66v7.37h-9.66v6.73c0,2.96,1.69,4.04,4.37,3.72a16.478,16.478,0,0,0,5.32-2.25l-0.05,6.35a29.283,29.283,0,0,1-8.7,2.2c-7.62.16-9.46-2.43-9.46-8.25v-8.5h-4.89V7.32Z"/><polygon points="83.84 45.5 85.31 45.5 86.8 51.78 86.83 51.78 88.49 45.5 89.98 45.5 91.6 51.78 91.62 51.78 93.16 45.5 94.63 45.5 92.35 53.71 90.88 53.71 89.23 47.44 89.2 47.44 87.51 53.71 86.02 53.71 83.84 45.5" fill-rule="evenodd"/><path d="M95.44,47.77h1.32v5.94H95.44V47.77Zm0-2.27h1.32v1.25H95.44V45.5Z" fill-rule="evenodd"/><path d="M98.2,47.77h1.24v1.15h0.02a1.946,1.946,0,0,1,1.75-1.31,3.743,3.743,0,0,1,.5.03v1.27a2.833,2.833,0,0,0-.57-0.06c-0.89,0-1.62.71-1.62,2.03v2.83H98.2V47.77Z" fill-rule="evenodd"/><polygon points="104.91 47.77 106.34 47.77 107.86 52.33 107.88 52.33 109.34 47.77 110.71 47.77 108.57 53.71 107.08 53.71 104.91 47.77" fill-rule="evenodd"/><path d="M115.62,50.22a1.541,1.541,0,1,0-3.08,0h3.08Zm-3.08.86a1.587,1.587,0,0,0,1.61,1.76,1.382,1.382,0,0,0,1.46-.99h1.25a2.615,2.615,0,0,1-2.71,2.02,2.815,2.815,0,0,1-2.93-3.12,2.894,2.894,0,1,1,5.72.33h-4.4Z" fill-rule="evenodd"/><path d="M117.95,47.77h1.24v1.15h0.03a1.944,1.944,0,0,1,1.74-1.31,3.606,3.606,0,0,1,.5.03v1.27a2.666,2.666,0,0,0-.56-0.06,1.753,1.753,0,0,0-1.63,2.03v2.83h-1.32V47.77Z" fill-rule="evenodd"/><path d="M123.03,51.8a1.165,1.165,0,0,0,1.35,1.04c0.51,0,1.37-.11,1.34-0.79s-1-.77-1.96-0.98-1.93-.55-1.93-1.76c0-1.3,1.42-1.7,2.51-1.7,1.22,0,2.35.49,2.5,1.82h-1.38a1.044,1.044,0,0,0-1.22-.79c-0.38,0-1.08.09-1.08,0.61,0,0.64.97,0.75,1.94,0.95,0.96,0.22,1.94.57,1.94,1.74,0,1.41-1.44,1.93-2.68,1.93-1.52,0-2.62-.67-2.65-2.07h1.32Z" fill-rule="evenodd"/><path d="M127.44,47.77h1V45.99h1.32v1.78h1.19v0.98h-1.19v3.17c0,0.54.05,0.81,0.64,0.81a2.548,2.548,0,0,0,.55-0.04V53.7a8.115,8.115,0,0,1-.85.07c-1.39,0-1.62-.53-1.66-1.52v-3.5h-1V47.77Z" fill-rule="evenodd"/><path d="M136.02,50.22a1.541,1.541,0,1,0-3.08,0h3.08Zm-3.08.86a1.587,1.587,0,0,0,1.61,1.76,1.4,1.4,0,0,0,1.46-.99h1.25a2.622,2.622,0,0,1-2.71,2.02,2.815,2.815,0,0,1-2.93-3.12,2.894,2.894,0,1,1,5.72.33h-4.4Z" fill-rule="evenodd"/><path d="M138.35,45.5h1.32v3.05h0.02a2.111,2.111,0,0,1,1.8-.94,1.877,1.877,0,0,1,2.12,2.02v4.08h-1.32V49.98c-0.04-.94-0.39-1.34-1.17-1.34a1.454,1.454,0,0,0-1.45,1.56v3.51h-1.32V45.5Z" fill-rule="evenodd"/><path d="M149.11,50.22a1.541,1.541,0,1,0-3.08,0h3.08Zm-3.08.86a1.587,1.587,0,0,0,1.61,1.76,1.382,1.382,0,0,0,1.46-.99h1.25a2.615,2.615,0,0,1-2.71,2.02,2.815,2.815,0,0,1-2.93-3.12,2.894,2.894,0,1,1,5.72.33h-4.4Z" fill-rule="evenodd"/><path d="M151.44,47.77h1.25v0.87l0.03,0.03a2.137,2.137,0,0,1,1.86-1.06,1.877,1.877,0,0,1,2.12,2.02v4.08h-1.32V49.98c-0.03-.94-0.38-1.34-1.17-1.34a1.454,1.454,0,0,0-1.45,1.56v3.51h-1.32V47.77Z" fill-rule="evenodd"/><path d="M161.31,47.77h1.26V48.6h0.03a2,2,0,0,1,1.84-.99,1.691,1.691,0,0,1,1.68.99,2.17,2.17,0,0,1,1.88-.99,1.754,1.754,0,0,1,2,2v4.1h-1.32V50.24c0-.95-0.06-1.6-1.09-1.6-0.89,0-1.27.58-1.27,1.59v3.48H165V49.89a1,1,0,0,0-1.06-1.25,1.381,1.381,0,0,0-1.3,1.54v3.53h-1.33V47.77Z" fill-rule="evenodd"/><path d="M175.51,50.22a1.541,1.541,0,1,0-3.08,0h3.08Zm-3.08.86a1.587,1.587,0,0,0,1.61,1.76,1.4,1.4,0,0,0,1.46-.99h1.25a2.622,2.622,0,0,1-2.71,2.02,2.815,2.815,0,0,1-2.93-3.12,2.894,2.894,0,1,1,5.72.33h-4.4Z" fill-rule="evenodd"/><path d="M177.84,45.5h1.32v3.05h0.02a2.111,2.111,0,0,1,1.8-.94,1.877,1.877,0,0,1,2.12,2.02v4.08h-1.32V49.98c-0.04-.94-0.38-1.34-1.17-1.34a1.454,1.454,0,0,0-1.45,1.56v3.51h-1.32V45.5Z" fill-rule="evenodd"/><path d="M184.49,47.77h1.24v1.15h0.02a1.946,1.946,0,0,1,1.75-1.31,3.743,3.743,0,0,1,.5.03v1.27a2.76,2.76,0,0,0-.57-0.06c-0.89,0-1.62.71-1.62,2.03v2.83h-1.32V47.77Z" fill-rule="evenodd"/><path d="M88.16,63.67a4.727,4.727,0,0,1-1.62.35,1.026,1.026,0,0,0-1.08.99,1.05,1.05,0,0,0,1.22.76,1.332,1.332,0,0,0,1.48-1.13V63.67Zm1.32,1.65c0,0.32.07,0.45,0.31,0.45h0.14a1.366,1.366,0,0,0,.19-0.02v0.91a3.881,3.881,0,0,1-.84.14,0.883,0.883,0,0,1-1.02-.72,3.045,3.045,0,0,1-2.07.72,1.811,1.811,0,0,1-2.05-1.73c0-1.48,1.19-1.72,2.31-1.85,0.96-.18,1.79-0.06,1.79-0.84a1,1,0,0,0-1.24-.8,1.123,1.123,0,0,0-1.32.94H84.36c0.09-1.53,1.39-1.98,2.72-1.98,1.17,0,2.4.47,2.4,1.73v3.05Z" fill-rule="evenodd"/><rect x="90.94" y="58.44" width="1.32" height="8.2"/><path d="M94.7,64.74a1.158,1.158,0,0,0,1.35,1.03c0.51,0,1.37-.1,1.33-0.78s-0.99-.77-1.95-0.99c-0.98-.21-1.93-0.55-1.93-1.76,0-1.3,1.42-1.7,2.51-1.7,1.22,0,2.35.5,2.5,1.83H97.13a1.05,1.05,0,0,0-1.22-.79c-0.38,0-1.09.09-1.09,0.61,0,0.64.98,0.74,1.95,0.95s1.93,0.56,1.93,1.73c0,1.42-1.43,1.93-2.67,1.93-1.52,0-2.62-.66-2.65-2.06H94.7Z" fill-rule="evenodd"/><path d="M104.57,62.17h2.37a1.213,1.213,0,0,0,1.42-1.31,1.183,1.183,0,0,0-1.44-1.25h-2.35v2.56Zm-1.45-3.73h3.95c1.82,0,2.73.83,2.73,2.22a1.992,1.992,0,0,1-1.36,2.07v0.02a1.5,1.5,0,0,1,1.23,1.73,3.613,3.613,0,0,0,.45,2.16h-1.55a2.159,2.159,0,0,1-.23-1.2c0-1.51-.31-2.17-1.64-2.17h-2.13v3.37h-1.45v-8.2Z" fill-rule="evenodd"/><path d="M115.2,63.15a1.535,1.535,0,1,0-3.07,0h3.07Zm-3.07.86a1.58,1.58,0,0,0,1.6,1.76,1.372,1.372,0,0,0,1.46-.99h1.25a2.608,2.608,0,0,1-2.71,2.02,2.815,2.815,0,0,1-2.93-3.12,2.9,2.9,0,1,1,5.73.33h-4.4Z" fill-rule="evenodd"/><path d="M117.57,60.7h1.32v5.94h-1.32V60.7Zm0-2.26h1.32v1.24h-1.32V58.44Z" fill-rule="evenodd"/><path d="M120.33,60.7h1.25v0.88l0.02,0.02a2.165,2.165,0,0,1,1.87-1.06,1.879,1.879,0,0,1,2.12,2.03v4.07h-1.32V62.91c-0.04-.93-0.38-1.33-1.17-1.33a1.454,1.454,0,0,0-1.45,1.56v3.5h-1.32V60.7Z" fill-rule="evenodd"/><path d="M127.02,60.7h1.32v5.94h-1.32V60.7Zm0-2.26h1.32v1.24h-1.32V58.44Z" fill-rule="evenodd"/><path d="M133.99,63.54a1.684,1.684,0,0,0-1.61-1.96c-1.17,0-1.58,1.08-1.58,2.07a1.721,1.721,0,0,0,1.58,1.96C133.55,65.61,133.99,64.56,133.99,63.54Zm1.32,2.79c0,1.8-1.04,2.67-2.94,2.67-1.21,0-2.55-.46-2.68-1.85h1.32a1.216,1.216,0,0,0,1.44.87,1.345,1.345,0,0,0,1.54-1.51V65.6h-0.02a2.066,2.066,0,0,1-1.8,1.04c-1.9,0-2.69-1.42-2.69-3.12a2.755,2.755,0,0,1,2.71-2.98,1.873,1.873,0,0,1,1.78.98h0.02V60.7h1.32v5.63Z" fill-rule="evenodd"/><path d="M141.9,66.64h-1.29V65.82h-0.03a2.012,2.012,0,0,1-1.7.98c-1.58,0-2.23-.76-2.23-2.33V60.7h1.32v3.65c0,1.04.41,1.42,1.14,1.42a1.382,1.382,0,0,0,1.47-1.62V60.7h1.32v5.94Z" fill-rule="evenodd"/><path d="M143.3,60.7h1.25v0.88l0.02,0.02a2.161,2.161,0,0,1,1.86-1.06,1.879,1.879,0,0,1,2.12,2.03v4.07h-1.32V62.91a1.1,1.1,0,0,0-1.17-1.33,1.447,1.447,0,0,0-1.44,1.56v3.5H143.3V60.7Z" fill-rule="evenodd"/><path d="M154.16,63.54a1.684,1.684,0,0,0-1.61-1.96c-1.17,0-1.57,1.08-1.57,2.07a1.714,1.714,0,0,0,1.57,1.96C153.72,65.61,154.16,64.56,154.16,63.54Zm1.32,2.79c0,1.8-1.04,2.67-2.94,2.67-1.2,0-2.55-.46-2.67-1.85h1.32a1.2,1.2,0,0,0,1.43.87,1.345,1.345,0,0,0,1.54-1.51V65.6h-0.02a2.05,2.05,0,0,1-1.79,1.04c-1.9,0-2.69-1.42-2.69-3.12a2.755,2.755,0,0,1,2.71-2.98,1.868,1.868,0,0,1,1.77.98h0.02V60.7h1.32v5.63Z" fill-rule="evenodd"/><rect x="156.92" y="65.09" width="1.61" height="1.55"/></svg>